<svg width="20" height="20" viewBox="0 0 20 20" fill="none" xmlns="http://www.w3.org/2000/svg">
<g clip-path="url(#clip0_2101_665)">
<path fill-rule="evenodd" clip-rule="evenodd" d="M5.625 2.5C5.28 2.5 5 2.78 5 3.125C5 3.47062 5.28 3.75 5.625 3.75C5.97 3.75 6.25 3.47062 6.25 3.125C6.25 2.78 5.97 2.5 5.625 2.5ZM8.125 2.5C7.78 2.5 7.5 2.78 7.5 3.125C7.5 3.47062 7.78 3.75 8.125 3.75C8.47 3.75 8.75 3.47062 8.75 3.125C8.75 2.78 8.47 2.5 8.125 2.5ZM18.75 5H1.25V2.5C1.25 1.81 1.81 1.25 2.5 1.25H17.5C18.19 1.25 18.75 1.81 18.75 2.5V5ZM18.75 17.5C18.75 18.19 18.19 18.75 17.5 18.75H2.5C1.81 18.75 1.25 18.19 1.25 17.5V6.25H18.75V17.5ZM17.5 0H2.5C1.11937 0 0 1.11937 0 2.5V17.5C0 18.8806 1.11937 20 2.5 20H17.5C18.8806 20 20 18.8806 20 17.5V2.5C20 1.11937 18.8806 0 17.5 0ZM3.125 2.5C2.78 2.5 2.5 2.78 2.5 3.125C2.5 3.47062 2.78 3.75 3.125 3.75C3.47 3.75 3.75 3.47062 3.75 3.125C3.75 2.78 3.47 2.5 3.125 2.5Z" fill="white" fill-opacity="0.5"/>
</g>
<defs>
<clipPath id="clip0_2101_665">
<rect width="20" height="20" fill="white"/>
</clipPath>
</defs>
</svg>
