<svg width="20" height="20" viewBox="0 0 20 20" fill="none" xmlns="http://www.w3.org/2000/svg">
<g clip-path="url(#clip0_2101_679)">
<path d="M0.333328 5.16659V15.7999C0.333328 17.1534 0.333328 17.8297 0.596733 18.3466C0.828419 18.8013 1.19785 19.1718 1.65259 19.4034C2.16903 19.6666 2.84544 19.6666 4.19626 19.6666H15.8037C17.1545 19.6666 17.83 19.6666 18.3464 19.4034C18.8011 19.1718 19.1718 18.8013 19.4035 18.3466C19.6667 17.8302 19.6667 17.1545 19.6667 15.8037V5.16659M0.333328 5.16659H19.6667M0.333328 5.16659L1.98292 2.27974C2.38774 1.57131 2.59011 1.21716 2.87476 0.959253C3.1268 0.730878 3.42496 0.558062 3.74828 0.452527C4.11373 0.333252 4.52169 0.333252 5.33895 0.333252H14.6607C15.4779 0.333252 15.8874 0.333252 16.2528 0.452527C16.5761 0.558062 16.8729 0.730878 17.1249 0.959253C17.4097 1.21737 17.6127 1.57188 18.0181 2.28145L19.6667 5.16659M10 8.79159V16.0416M10 16.0416L13.625 13.6249M10 16.0416L6.375 13.6249" stroke="white" stroke-opacity="0.5" stroke-linecap="round" stroke-linejoin="round"/>
</g>
<defs>
<clipPath id="clip0_2101_679">
<rect width="20" height="20" fill="white"/>
</clipPath>
</defs>
</svg>
