<svg width="20" height="20" viewBox="0 0 20 20" fill="none" xmlns="http://www.w3.org/2000/svg">
<g clip-path="url(#clip0_2101_661)">
<path d="M16.9954 5.70972H17.0394C17.1663 5.70972 17.2786 5.76831 17.3535 5.85783C19.2106 7.76864 20.1855 11.9174 19.9691 14.6941C19.9089 15.4639 19.7575 16.141 19.5085 16.6521C19.2253 17.2348 18.8167 17.6173 18.2699 17.7182C17.5732 17.8468 16.7025 17.4789 15.6559 16.4128C15.5208 16.2761 15.3809 16.1378 15.2376 15.9962C14.7493 15.516 14.235 15.0098 13.8005 14.3995H6.19791C5.76172 15.0147 5.24739 15.5209 4.75748 16.0011C4.61588 16.141 4.47591 16.2778 4.34245 16.4128C3.2959 17.4789 2.42513 17.8468 1.72851 17.7182C1.18164 17.6173 0.771482 17.2348 0.489906 16.6521C0.240883 16.1394 0.0895158 15.4639 0.0292945 14.6941C-0.187177 11.9044 0.797524 7.7312 2.66927 5.83179C2.74902 5.75041 2.85319 5.70972 2.95898 5.70972V5.70809H3.00455C3.23405 5.39233 3.51888 5.13843 3.83952 4.94637C4.32617 4.65503 4.89258 4.51017 5.45573 4.51017C6.02051 4.51017 6.58691 4.65503 7.07194 4.94637C7.39095 5.1368 7.67578 5.39071 7.90202 5.70646H9.18945C9.09017 3.27808 9.76562 2.66772 10.7633 2.59937C11.1247 2.57495 11.5072 2.63843 11.9076 2.70516C12.6644 2.83049 13.501 2.96883 14.0951 2.37476C14.2546 2.21525 14.5117 2.21525 14.6712 2.37476C14.8307 2.53426 14.8307 2.79142 14.6712 2.95093C13.7809 3.8396 12.7279 3.66545 11.7757 3.50757C11.4242 3.44897 11.0889 3.39364 10.8171 3.41154C10.2783 3.44735 9.92025 3.89657 10.0049 5.70972H12.0996C12.3275 5.39396 12.6139 5.13843 12.9329 4.948C13.4196 4.65666 13.986 4.5118 14.5475 4.5118C15.109 4.5118 15.6755 4.65828 16.1621 4.948C16.4811 5.13843 16.7676 5.39233 16.9954 5.70972ZM14.79 10.7097C15.0895 11.0092 15.0895 11.4926 14.79 11.7921C14.4906 12.0916 14.0072 12.0916 13.7077 11.7921C13.4082 11.4926 13.4082 11.0092 13.7077 10.7097C14.0055 10.4119 14.4906 10.4119 14.79 10.7097ZM16.4925 9.18302C16.792 9.4825 16.792 9.9659 16.4925 10.2654C16.193 10.5649 15.7096 10.5649 15.4102 10.2654C15.1107 9.9659 15.1107 9.4825 15.4102 9.18302C15.7096 8.88354 16.193 8.88354 16.4925 9.18302ZM13.0859 9.18302C13.3854 9.4825 13.3854 9.9659 13.0859 10.2654C12.7865 10.5649 12.3031 10.5649 12.0036 10.2654C11.7041 9.9659 11.7041 9.4825 12.0036 9.18302C12.3031 8.88354 12.7881 8.88354 13.0859 9.18302ZM14.79 7.81909C15.0895 8.11857 15.0895 8.60197 14.79 8.90145C14.4906 9.20093 14.0072 9.20093 13.7077 8.90145C13.4082 8.60197 13.4082 8.11857 13.7077 7.81909C14.0055 7.52124 14.4906 7.52124 14.79 7.81909ZM4.37011 7.95581H5.69987V9.3116H7.05566V10.6414H5.69987V11.9972H4.37011V10.6414H3.01432V9.3116H4.37011V7.95581ZM16.8652 6.52515H16.7773V6.52352C16.639 6.52352 16.5039 6.45353 16.429 6.32495C16.2549 6.03524 16.0173 5.80737 15.7438 5.64461C15.3874 5.4314 14.9691 5.3256 14.5459 5.3256C14.1243 5.3256 13.7044 5.4314 13.348 5.64461C13.0827 5.80249 12.8516 6.02222 12.679 6.29891C12.6123 6.43237 12.474 6.52352 12.3145 6.52352H7.68555V6.52189C7.5472 6.52189 7.41211 6.4519 7.33724 6.32332C7.16471 6.03361 6.92708 5.80737 6.65527 5.64461C6.2972 5.42977 5.87728 5.32235 5.45573 5.32235C5.03418 5.32235 4.61426 5.42977 4.25618 5.64461C3.99088 5.80412 3.75814 6.02222 3.58561 6.29891C3.51888 6.43237 3.38053 6.52352 3.22103 6.52352H3.13314C1.49577 8.31714 0.642901 12.0818 0.841469 14.6339C0.893552 15.3044 1.01888 15.8822 1.22233 16.2989C1.3916 16.6456 1.60807 16.8702 1.875 16.919C2.30957 16.9988 2.92806 16.6928 3.76302 15.8432C3.90136 15.7032 4.04297 15.5632 4.18782 15.4216C4.68913 14.9301 5.2181 14.4093 5.625 13.8005C5.69336 13.672 5.82845 13.5857 5.9847 13.5857H14.0153V13.5873C14.1471 13.5873 14.2757 13.6508 14.3538 13.7696C14.7673 14.3946 15.3027 14.922 15.8089 15.42C15.9554 15.5632 16.0986 15.7048 16.237 15.8464C17.0703 16.696 17.6904 17.002 18.125 16.9223C18.3919 16.8735 18.61 16.6488 18.7777 16.3022C18.9811 15.8839 19.1064 15.3077 19.1585 14.6371C19.3571 12.0818 18.5042 8.31714 16.8652 6.52515Z" fill="white" fill-opacity="0.5"/>
</g>
<defs>
<clipPath id="clip0_2101_661">
<rect width="20" height="20" fill="white"/>
</clipPath>
</defs>
</svg>
