<svg width="20" height="20" viewBox="0 0 20 20" fill="none" xmlns="http://www.w3.org/2000/svg">
<g clip-path="url(#clip0_2101_670)">
<path d="M20 10.002C20 4.4707 15.5313 0.00195312 10 0.00195312C4.46875 0.00195312 0 4.4707 0 10.002C0 14.877 3.5 18.9395 8.125 19.8145L8.12563 19.8151C8.38688 19.8651 8.76 19.9279 9.16125 19.9657C9.38312 19.9835 9.60656 19.9941 9.83063 19.9982C9.86063 19.9982 9.89063 19.9985 9.92031 19.9979C10.6778 19.9826 11.6672 19.8173 11.9781 19.7623C16.5516 18.877 20 14.8404 20 10.002ZM18.2812 5.5957H16.75C15.8125 3.56445 14.4375 2.12695 13.3438 1.25195C15.4688 2.06445 17.2187 3.62695 18.2812 5.5957ZM11.5937 0.751953C11.875 0.908203 14.5625 2.50195 16.0625 5.5957H12.5312C11.9687 3.25195 11.125 1.4707 10.6875 0.658203C11 0.689453 11.3125 0.720703 11.5937 0.751953ZM11.9062 5.5957H8.125C8.75 3.06445 9.6875 1.25195 10 0.689453C10.3125 1.25195 11.25 3.06445 11.9062 5.5957ZM9.3125 0.658203C8.875 1.4707 8.03125 3.25195 7.46875 5.5957H3.9375C5.4375 2.50195 8.15625 0.908203 8.40625 0.751953C8.6875 0.720703 9 0.689453 9.3125 0.658203ZM6.65625 1.25195C5.59375 2.12695 4.1875 3.56445 3.28125 5.5957H1.71875C2.78125 3.62695 4.53125 2.06445 6.65625 1.25195ZM0.625 10.002C0.625 8.6582 0.90625 7.37695 1.4375 6.2207H18.5938C19.0938 7.37695 19.375 8.6582 19.375 10.002C19.375 11.3457 19.0938 12.627 18.5625 13.7832H1.4375C0.90625 12.627 0.625 11.3457 0.625 10.002ZM1.71875 14.4082H3.21875C4.125 16.4082 5.46875 17.8457 6.5625 18.7207C4.5 17.9082 2.78125 16.3457 1.71875 14.4082ZM8.3125 19.2207C7.75 18.877 5.3125 17.3145 3.90625 14.4082H7.34375C7.71875 16.0332 8.34375 17.6895 9.3125 19.3457C9 19.3145 8.65625 19.2832 8.3125 19.2207ZM8 14.4082H12C11.625 16.002 10.9687 17.627 10 19.252C9.03125 17.5957 8.375 15.9707 8 14.4082ZM10.6562 19.3457C11.625 17.6895 12.25 16.002 12.625 14.4082H16.0625C14.6875 17.3145 12.2188 18.9082 11.6875 19.2207C11.3438 19.2832 11 19.3145 10.6562 19.3457ZM13.4375 18.7207C14.5 17.8145 15.875 16.4082 16.7813 14.4082H18.2812C17.2187 16.3457 15.5 17.9082 13.4375 18.7207Z" fill="white" fill-opacity="0.5"/>
<path d="M2.0625 9.90625C2.0625 9.53125 2.125 9.21875 2.21875 8.9375C2.3125 8.75 2.4375 8.59375 2.5625 8.4375C2.71875 8.28125 2.875 8.1875 3.03125 8.09375C3.25 8 3.53125 7.9375 3.84375 7.9375C4.40625 7.9375 4.84375 8.09375 5.15625 8.4375C5.5 8.78125 5.65625 9.25 5.65625 9.84375C5.65625 10.4375 5.5 10.9062 5.15625 11.25C4.84375 11.5937 4.40625 11.75 3.84375 11.75C3.28125 11.75 2.84375 11.5937 2.53125 11.25C2.21875 10.9062 2.0625 10.5 2.0625 9.90625ZM2.84375 9.875C2.84375 10.3125 2.9375 10.625 3.125 10.8437C3.3125 11.0625 3.5625 11.1562 3.875 11.1562C4.1875 11.1562 4.40625 11.0625 4.625 10.8437C4.8125 10.625 4.90625 10.3125 4.90625 9.875C4.90625 9.4375 4.8125 9.125 4.625 8.90625C4.4375 8.6875 4.1875 8.59375 3.875 8.59375C3.5625 8.59375 3.3125 8.6875 3.125 8.90625C2.9375 9.125 2.84375 9.4375 2.84375 9.875ZM8.71875 11.75H8V10.375C8 10.0937 8 9.90625 7.96875 9.8125C7.9375 9.71875 7.875 9.65625 7.8125 9.625C7.75 9.5625 7.65625 9.5625 7.5625 9.5625C7.4375 9.5625 7.3125 9.59375 7.21875 9.65625C7.125 9.71875 7.0625 9.8125 7.03125 9.9375C7 10.0625 6.96875 10.25 6.96875 10.5625V11.7812H6.25V9.09375H6.90625V9.5C7.15625 9.1875 7.4375 9.03125 7.78125 9.03125C7.9375 9.03125 8.09375 9.0625 8.21875 9.125C8.34375 9.1875 8.4375 9.25 8.5 9.34375C8.5625 9.4375 8.625 9.53125 8.625 9.65625C8.65625 9.78125 8.65625 9.9375 8.65625 10.125L8.71875 11.75ZM9.4375 11.75V8H10.1562V11.7187H9.4375V11.75ZM10.875 8.6875V8.03125H11.5937V8.6875H10.875ZM10.875 11.75V9.0625H11.5937V11.75H10.875ZM14.7813 11.75H14.0625V10.375C14.0625 10.0937 14.0625 9.90625 14.0313 9.8125C14 9.71875 13.9375 9.65625 13.875 9.625C13.8125 9.5625 13.7188 9.5625 13.625 9.5625C13.5 9.5625 13.375 9.59375 13.2813 9.65625C13.1875 9.71875 13.125 9.8125 13.0938 9.9375C13.0625 10.0625 13.0313 10.25 13.0313 10.5625V11.7812H12.3125V9.09375H12.9688V9.5C13.2188 9.1875 13.5 9.03125 13.8438 9.03125C14 9.03125 14.1563 9.0625 14.2813 9.125C14.4063 9.1875 14.5 9.25 14.5625 9.34375C14.625 9.4375 14.6875 9.53125 14.6875 9.65625C14.7188 9.78125 14.7188 9.9375 14.7188 10.125L14.7813 11.75ZM17.0625 10.875L17.7813 11C17.6875 11.25 17.5313 11.4688 17.3438 11.5938C17.1563 11.7188 16.9062 11.8125 16.5938 11.8125C16.125 11.8125 15.7813 11.6562 15.5625 11.3437C15.375 11.0937 15.2813 10.7812 15.2813 10.4062C15.2813 9.96875 15.4063 9.59375 15.625 9.34375C15.8438 9.09375 16.1563 8.96875 16.5 8.96875C16.9063 8.96875 17.2188 9.09375 17.4375 9.375C17.6563 9.625 17.7813 10.0313 17.7813 10.5938H16C16 10.8125 16.0625 10.9687 16.1875 11.0937C16.3125 11.2187 16.4375 11.2813 16.5938 11.2813C16.7188 11.2813 16.8125 11.25 16.875 11.1875C16.9375 11.125 17.0312 11.0312 17.0625 10.875ZM17.125 10.1562C17.125 9.9375 17.0625 9.78125 16.9688 9.6875C16.875 9.59375 16.75 9.53125 16.5938 9.53125C16.4375 9.53125 16.3125 9.59375 16.2188 9.6875C16.125 9.8125 16.0625 9.96875 16.0625 10.1562H17.125Z" fill="white" fill-opacity="0.5"/>
</g>
<defs>
<clipPath id="clip0_2101_670">
<rect width="20" height="20" fill="white"/>
</clipPath>
</defs>
</svg>
