<svg width="34" height="34" viewBox="0 0 34 34" fill="none" xmlns="http://www.w3.org/2000/svg">
<path d="M17 2.83337C9.18004 2.83337 2.83337 9.18004 2.83337 17C2.83337 24.82 9.18004 31.1667 17 31.1667C24.82 31.1667 31.1667 24.82 31.1667 17C31.1667 9.18004 24.82 2.83337 17 2.83337ZM22.7092 17.7509L18.4592 22.0009C18.2467 22.2134 17.9775 22.3125 17.7084 22.3125C17.4392 22.3125 17.17 22.2134 16.9575 22.0009C16.5467 21.59 16.5467 20.91 16.9575 20.4992L19.3942 18.0625H12.0417C11.4609 18.0625 10.9792 17.5809 10.9792 17C10.9792 16.4192 11.4609 15.9375 12.0417 15.9375H19.3942L16.9575 13.5009C16.5467 13.09 16.5467 12.41 16.9575 11.9992C17.3684 11.5884 18.0484 11.5884 18.4592 11.9992L22.7092 16.2492C23.12 16.66 23.12 17.34 22.7092 17.7509Z" fill="white"/>
</svg>
